<svg width="1400" height="900" viewBox="0 0 1400 900" xmlns="http://www.w3.org/2000/svg">
  <defs>
    <linearGradient id="ridgeSky" x1="0%" y1="0%" x2="100%" y2="100%">
      <stop offset="0%" stop-color="#0f172a"/>
      <stop offset="100%" stop-color="#111827"/>
    </linearGradient>
    <linearGradient id="auroraBand" x1="0%" y1="0%" x2="100%" y2="0%">
      <stop offset="0%" stop-color="#22d3ee"/>
      <stop offset="50%" stop-color="#a855f7"/>
      <stop offset="100%" stop-color="#22c55e"/>
    </linearGradient>
  </defs>
  <rect width="1400" height="900" fill="url(#ridgeSky)"/>
  <path d="M0 260 Q360 180 700 260 T1400 220" stroke="url(#auroraBand)" stroke-width="90" stroke-linecap="round" fill="none" opacity="0.55"/>
  <path d="M0 640 Q320 560 560 600 T960 580 T1400 640 L1400 900 L0 900 Z" fill="#0b1324"/>
  <path d="M0 700 Q300 650 620 700 T1080 680 T1400 740 L1400 900 L0 900 Z" fill="#0ea5e9" opacity="0.1"/>
  <path d="M0 750 Q260 720 600 750 T1100 730 T1400 780 L1400 900 L0 900 Z" fill="#22c55e" opacity="0.08"/>
</svg>
