<svg width="1400" height="900" viewBox="0 0 1400 900" xmlns="http://www.w3.org/2000/svg">
  <defs>
    <linearGradient id="ginger" x1="0%" y1="0%" x2="0%" y2="100%">
      <stop offset="0%" stop-color="#c2410c"/>
      <stop offset="100%" stop-color="#7c2d12"/>
    </linearGradient>
  </defs>
  <rect width="1400" height="900" fill="url(#ginger)"/>
  <path d="M0 560 Q300 520 560 560 T1040 540 T1400 580 L1400 900 L0 900 Z" fill="#f97316" opacity="0.18"/>
  <path d="M0 660 Q280 630 620 660 T1100 650 T1400 700 L1400 900 L0 900 Z" fill="#fbbf24" opacity="0.12"/>
  <g stroke="#f8fafc" stroke-width="10" stroke-linecap="round" stroke-dasharray="4 16">
    <path d="M120 200 H1280" />
    <path d="M120 320 H1280" />
  </g>
  <g fill="#fee2e2" fill-opacity="0.7">
    <circle cx="200" cy="260" r="10"/>
    <circle cx="360" cy="240" r="10"/>
    <circle cx="520" cy="260" r="10"/>
    <circle cx="680" cy="240" r="10"/>
    <circle cx="840" cy="260" r="10"/>
    <circle cx="1000" cy="240" r="10"/>
    <circle cx="1160" cy="260" r="10"/>
  </g>
  <g fill="#facc15" opacity="0.5">
    <circle cx="300" cy="620" r="120"/>
    <circle cx="1040" cy="640" r="140"/>
  </g>
</svg>
