<svg width="1400" height="900" viewBox="0 0 1400 900" xmlns="http://www.w3.org/2000/svg">
  <defs>
    <linearGradient id="glacierSky" x1="0%" y1="0%" x2="0%" y2="100%">
      <stop offset="0%" stop-color="#0b2f4a"/>
      <stop offset="100%" stop-color="#0ea5e9"/>
    </linearGradient>
  </defs>
  <rect width="1400" height="900" fill="url(#glacierSky)"/>
  <path d="M0 520 Q260 440 560 500 T1120 480 T1400 520 L1400 900 L0 900 Z" fill="#e0f2fe" opacity="0.7"/>
  <path d="M0 640 Q300 600 640 640 T1100 620 T1400 660 L1400 900 L0 900 Z" fill="#bae6fd" opacity="0.8"/>
  <path d="M0 720 Q320 690 640 720 T1080 700 T1400 740 L1400 900 L0 900 Z" fill="#0ea5e9" opacity="0.35"/>
  <g fill="#0f172a" opacity="0.5">
    <polygon points="120 520 260 380 420 520"/>
    <polygon points="520 520 700 340 900 520"/>
    <polygon points="980 520 1160 360 1320 520"/>
  </g>
</svg>
