<svg width="1400" height="900" viewBox="0 0 1400 900" xmlns="http://www.w3.org/2000/svg">
  <defs>
    <linearGradient id="goldBase" x1="0%" y1="0%" x2="100%" y2="100%">
      <stop offset="0%" stop-color="#fef3c7"/>
      <stop offset="100%" stop-color="#f59e0b"/>
    </linearGradient>
    <linearGradient id="ribbon" x1="0%" y1="0%" x2="100%" y2="0%">
      <stop offset="0%" stop-color="#f59e0b"/>
      <stop offset="100%" stop-color="#d97706"/>
    </linearGradient>
  </defs>
  <rect width="1400" height="900" fill="url(#goldBase)"/>
  <path d="M0 380 Q260 320 520 360 T960 360 T1400 320 L1400 500 Q1080 460 760 520 T200 520 T0 500 Z" fill="url(#ribbon)" opacity="0.5"/>
  <path d="M0 620 Q320 600 640 640 T1120 620 T1400 660 L1400 900 L0 900 Z" fill="#fbbf24" opacity="0.18"/>
  <path d="M0 700 Q280 670 600 700 T1100 680 T1400 720 L1400 900 L0 900 Z" fill="#f59e0b" opacity="0.12"/>
  <g fill="#fef9c3" opacity="0.4">
    <circle cx="260" cy="240" r="80"/>
    <circle cx="540" cy="200" r="60"/>
    <circle cx="860" cy="240" r="80"/>
    <circle cx="1140" cy="200" r="60"/>
  </g>
</svg>
