<svg width="1400" height="900" viewBox="0 0 1400 900" xmlns="http://www.w3.org/2000/svg">
  <defs>
    <linearGradient id="dawn" x1="0%" y1="0%" x2="0%" y2="100%">
      <stop offset="0%" stop-color="#fbbf24"/>
      <stop offset="100%" stop-color="#1e293b"/>
    </linearGradient>
  </defs>
  <rect width="1400" height="900" fill="url(#dawn)"/>
  <path d="M0 520 Q280 460 520 500 T960 480 T1400 520 L1400 900 L0 900 Z" fill="#e0f2fe" opacity="0.8"/>
  <path d="M0 620 Q300 580 620 620 T1100 600 T1400 660 L1400 900 L0 900 Z" fill="#c7e0f4" opacity="0.7"/>
  <path d="M0 720 Q280 690 620 720 T1080 700 T1400 740 L1400 900 L0 900 Z" fill="#0ea5e9" opacity="0.25"/>
  <g fill="#0f172a" opacity="0.45">
    <polygon points="200 520 360 380 520 520"/>
    <polygon points="620 520 780 360 940 520"/>
    <polygon points="1020 520 1180 380 1340 520"/>
  </g>
</svg>
