<svg width="1400" height="900" viewBox="0 0 1400 900" xmlns="http://www.w3.org/2000/svg">
  <defs>
    <linearGradient id="night" x1="0%" y1="0%" x2="0%" y2="100%">
      <stop offset="0%" stop-color="#0b1324"/>
      <stop offset="100%" stop-color="#0f172a"/>
    </linearGradient>
  </defs>
  <rect width="1400" height="900" fill="url(#night)"/>
  <circle cx="1120" cy="160" r="80" fill="#e2e8f0" opacity="0.35"/>
  <g fill="#e5e7eb" fill-opacity="0.8">
    <circle cx="220" cy="180" r="2.5"/>
    <circle cx="320" cy="120" r="3"/>
    <circle cx="520" cy="140" r="2.5"/>
    <circle cx="680" cy="100" r="2.5"/>
    <circle cx="820" cy="160" r="3"/>
    <circle cx="980" cy="120" r="2.5"/>
    <circle cx="1260" cy="140" r="2.5"/>
    <circle cx="260" cy="320" r="2.5"/>
    <circle cx="480" cy="300" r="3"/>
    <circle cx="700" cy="340" r="3"/>
    <circle cx="940" cy="300" r="2.5"/>
    <circle cx="1180" cy="320" r="3"/>
  </g>
  <path d="M0 620 Q320 570 620 620 T1120 600 T1400 660 L1400 900 L0 900 Z" fill="#0f172a" opacity="0.6"/>
  <path d="M0 680 Q280 650 620 680 T1100 660 T1400 700 L1400 900 L0 900 Z" fill="#e2e8f0" opacity="0.08"/>
</svg>
