<svg width="1400" height="900" viewBox="0 0 1400 900" xmlns="http://www.w3.org/2000/svg">
  <defs>
    <linearGradient id="pine" x1="0%" y1="0%" x2="0%" y2="100%">
      <stop offset="0%" stop-color="#0f3d2e"/>
      <stop offset="100%" stop-color="#0b241a"/>
    </linearGradient>
  </defs>
  <rect width="1400" height="900" fill="url(#pine)"/>
  <path d="M0 540 Q260 500 520 540 T1040 520 T1400 560 L1400 900 L0 900 Z" fill="#16a34a" opacity="0.12"/>
  <path d="M0 620 Q320 600 660 620 T1120 610 T1400 660 L1400 900 L0 900 Z" fill="#22c55e" opacity="0.09"/>
  <g stroke="#fcd34d" stroke-width="4" stroke-linecap="round" stroke-dasharray="1 14">
    <path d="M120 200 Q300 260 480 200 T840 210 T1220 180" />
    <path d="M200 320 Q440 380 680 320 T1100 340" />
  </g>
  <g fill="#facc15">
    <circle cx="160" cy="210" r="8"/>
    <circle cx="320" cy="250" r="8"/>
    <circle cx="520" cy="210" r="8"/>
    <circle cx="740" cy="230" r="8"/>
    <circle cx="920" cy="200" r="8"/>
    <circle cx="1120" cy="220" r="8"/>
    <circle cx="240" cy="330" r="9"/>
    <circle cx="480" cy="360" r="9"/>
    <circle cx="700" cy="330" r="9"/>
    <circle cx="940" cy="350" r="9"/>
  </g>
</svg>
