<svg width="1400" height="900" viewBox="0 0 1400 900" xmlns="http://www.w3.org/2000/svg">
  <defs>
    <radialGradient id="globe" cx="50%" cy="45%" r="55%">
      <stop offset="0%" stop-color="#e0f2fe" stop-opacity="0.9"/>
      <stop offset="100%" stop-color="#0ea5e9" stop-opacity="0.2"/>
    </radialGradient>
    <linearGradient id="sky" x1="0%" y1="0%" x2="0%" y2="100%">
      <stop offset="0%" stop-color="#0b2e4a"/>
      <stop offset="100%" stop-color="#0ea5e9"/>
    </linearGradient>
  </defs>
  <rect width="1400" height="900" fill="url(#sky)"/>
  <circle cx="700" cy="430" r="360" fill="url(#globe)"/>
  <ellipse cx="700" cy="760" rx="480" ry="110" fill="#0f172a" opacity="0.45"/>
  <g fill="#fff" fill-opacity="0.85">
    <circle cx="480" cy="320" r="4"/>
    <circle cx="520" cy="260" r="3"/>
    <circle cx="620" cy="230" r="3"/>
    <circle cx="760" cy="250" r="3"/>
    <circle cx="860" cy="300" r="4"/>
    <circle cx="920" cy="360" r="3"/>
    <circle cx="560" cy="380" r="3"/>
    <circle cx="640" cy="440" r="4"/>
    <circle cx="760" cy="420" r="3"/>
    <circle cx="820" cy="500" r="4"/>
  </g>
  <path d="M240 610 Q460 560 700 600 T1160 600 T1400 660 L1400 900 L0 900 Z" fill="#e0f2fe" fill-opacity="0.3"/>
  <path d="M0 660 Q320 630 640 650 T1100 640 T1400 700 L1400 900 L0 900 Z" fill="#bae6fd" fill-opacity="0.2"/>
</svg>
